<?xml version="1.0" encoding="UTF-8"?><svg id="Capa_2" xmlns="http://www.w3.org/2000/svg" viewBox="0 0 332.29 152.35"><g id="Layer_1"><path d="m166.85,42.28c-1.11-1.11-1.11-2.91,0-4.02,1.11-1.11,2.91-1.11,4.02,0,1.11,1.11,1.11,2.91,0,4.02-1.11,1.11-2.91,1.11-4.02,0Zm16.91,4.86c-.36-.36-.76-.66-1.18-.91v-27.27c10.51-.01,20.24-.02,20.24-.02-1.98-2.14-7.27-10.3-16.02-11.43-7.27-.95-18.25-1.73-25.04-1.8-6.79.07-17.78.86-25.05,1.8-8.75,1.13-14.04,9.29-16.02,11.43,0,0,29.1.04,40.94.04,3.8,0,9.41,0,15.28,0v27.27c-.42.24-.82.54-1.18.9-2.22,2.22-2.22,5.82,0,8.04,2.22,2.22,5.82,2.22,8.04,0,2.22-2.22,2.22-5.82,0-8.04Zm28.36-31.11c.07-.02.14-.04.21-.06l-.21.06Zm-100.97-.06c.07.02.14.04.21.06l-.21-.06Zm-13.37,8.83c0-.06.01-.12.01-.18,0-.79-.64-1.42-1.42-1.42l-9.15-1.48h-.04c-1.24-.31-2.16-1.43-2.16-2.77,0-.38.07-.74.21-1.07.05-.13.12-.26.19-.39l1.19-2.38c.07-.19.16-.37.27-.53.5-.79,1.39-1.32,2.4-1.32h11.38c.88,0,1.84.24,1.84.24l8.67,2.47.21.06c.21.05.43.08.66.08.69,0,1.32-.25,1.81-.65,5.71-4.87,14.52-13.05,20.91-13.96h.1C142.57.49,155.23,0,161.76,0c6.56,0,19.19.49,26.92,1.49h.1c6.39.91,15.2,9.1,20.91,13.97l.2.17c.45.3.99.47,1.58.48.23,0,.44-.03.65-.08l.21-.06,8.66-2.4s.97-.31,1.85-.31h11.38c1.01,0,1.89.52,2.4,1.32.11.17.2.35.27.53l1.18,2.38c.07.12.14.25.19.39.13.33.21.69.21,1.07,0,1.34-.92,2.46-2.16,2.76h-.04s-9.15,1.49-9.15,1.49c-.78,0-1.42.64-1.42,1.42,0,.15.02.29.06.42.52.88,1.01,1.9,1.46,3.11.76,2.03,1.43,8.55,1.5,16.38h-25.52l-11.56,11.56c-1.9-.51-4.01-.02-5.49,1.47-2.22,2.22-2.22,5.82,0,8.04,2.22,2.22,5.82,2.22,8.04,0,1.49-1.49,1.98-3.59,1.47-5.49l9.9-9.9h23.11c-.26,9.3-1.43,19.33-4.24,25.57h-22.09l-1.57-5.75s-24.96,3.87-38.98,3.88h-.03c-5.98,0-13.9-.7-21.03-1.49l26.67-26.67c1.9.51,4.01.02,5.49-1.47,2.22-2.22,2.22-5.82,0-8.04-2.22-2.22-5.82-2.22-8.04,0-1.49,1.49-1.98,3.59-1.47,5.49l-29.83,29.83c-6.18-.79-10.61-1.47-10.61-1.47l-1.9,5.68h-21.8c-2.98-6.92-4.08-18.39-4.22-28.42h50.87s11.55-11.56,11.55-11.56c1.9.51,4,.01,5.49-1.47,2.22-2.22,2.22-5.82,0-8.04-2.22-2.22-5.82-2.22-8.04,0-1.49,1.49-1.98,3.59-1.47,5.49l-9.89,9.89h-48.49c.14-6.51.67-11.72,1.27-13.53.44-1.32.93-2.42,1.48-3.35Zm79.96,28.37c-1.11-1.11-1.11-2.91,0-4.02,1.11-1.11,2.91-1.11,4.02,0,1.11,1.11,1.11,2.91,0,4.02-1.11,1.11-2.91,1.11-4.02,0Zm-20.84-20.84c-1.11-1.11-1.11-2.91,0-4.02,1.11-1.11,2.91-1.11,4.02,0,1.11,1.11,1.11,2.91,0,4.02s-2.91,1.11-4.02,0Zm35.28,27.24c1.11,1.11,1.11,2.91,0,4.02-1.11,1.11-2.91,1.11-4.02,0-1.11-1.11-1.11-2.91,0-4.02,1.11-1.11,2.91-1.11,4.02,0Z" fill="#005e7d" stroke-width="0"/><path d="m133.82,128.87l-5.6-17.82-6.1,17.82h11.71Zm-34.66,21.65l20.42-52.49h18.14l20.26,52.49h-17.84l-3.59-10.78h-16.55l-3.88,10.78h-16.96ZM14.19,124.25c0,8.68,6.23,15.71,13.91,15.71s13.91-7.04,13.91-15.71-6.23-15.71-13.91-15.71-13.91,7.04-13.91,15.71Zm13.91-28.11c15.52,0,28.11,12.58,28.11,28.11s-12.58,28.11-28.11,28.11S0,139.77,0,124.25s12.58-28.11,28.11-28.11Zm58.1,22.42c6,2.1,12.53,5.77,12.16,16.3-.74,21.27-27.11,16.87-40.84,16.37l.46-13.04s11.66.42,16.04.58c2.26.08,7.41.21,7.53-3.2.12-3.54-6.84-4.94-9.41-5.79-5.25-1.66-13.62-5.65-13.24-16.64.67-19.09,26.1-15.68,38.79-15.25l-.44,12.68s-10.08-.33-13.67-.46c-1.7-.06-7.7-.19-7.79,2.62-.12,3.53,8.04,5,10.42,5.83Z" fill="#f17d00" stroke-width="0"/><path d="m324.11,137.98l-2.66,13.38h-14.86c-15.96,0-28.87-7.91-24.79-28.41,2.76-13.89,15.4-26.06,34.84-26.06h15.65l-2.65,13.34h-13.92c-9.59,0-15.53,6.16-16.87,12.87-1.88,9.46,3.28,14.88,11.85,14.88h13.42Zm-134.32-14.45l-10.1,27h-15.55l19.97-52.49h18.57l-.46,27.18,10.36-27.18h18.5l-.93,52.49h-15.91l.66-27.57-10.97,27.57h-14.84l.69-27Zm85.94,14.09l-2.57,12.91h-38.91l10.45-52.49h38.34l-2.6,13.05h-21.77l-1.18,5.91h20.33l-2.57,12.91h-20.33l-1.53,7.71h22.34Z" fill="#005e7d" stroke-width="0"/></g></svg>