<?xml version="1.0" encoding="UTF-8"?><svg id="Capa_2" xmlns="http://www.w3.org/2000/svg" viewBox="0 0 332.29 178.91"><g id="Layer_1"><path d="m166.85,42.28c-1.11-1.11-1.11-2.91,0-4.02,1.11-1.11,2.91-1.11,4.02,0,1.11,1.11,1.11,2.91,0,4.02-1.11,1.11-2.91,1.11-4.02,0Zm16.91,4.86c-.36-.36-.76-.66-1.18-.91v-27.27c10.51-.01,20.24-.02,20.24-.02-1.98-2.14-7.27-10.3-16.02-11.43-7.27-.95-18.25-1.73-25.04-1.8-6.79.07-17.78.86-25.05,1.8-8.75,1.13-14.04,9.29-16.02,11.43,0,0,29.1.04,40.94.04,3.8,0,9.41,0,15.28,0v27.27c-.42.24-.82.54-1.18.9-2.22,2.22-2.22,5.82,0,8.04,2.22,2.22,5.82,2.22,8.04,0,2.22-2.22,2.22-5.82,0-8.04Zm28.36-31.11c.07-.02.14-.04.21-.06l-.21.06Zm-100.97-.06c.07.02.14.04.21.06l-.21-.06Zm-13.37,8.83c0-.06.01-.12.01-.18,0-.79-.64-1.42-1.42-1.42l-9.15-1.48h-.04c-1.24-.31-2.16-1.43-2.16-2.77,0-.38.07-.74.21-1.07.05-.13.12-.26.19-.39l1.19-2.38c.07-.19.16-.37.27-.53.5-.79,1.39-1.32,2.4-1.32h11.38c.88,0,1.84.24,1.84.24l8.67,2.47.21.06c.21.05.43.08.66.08.69,0,1.32-.25,1.81-.65,5.71-4.87,14.52-13.05,20.91-13.96h.1C142.57.49,155.23,0,161.76,0c6.56,0,19.19.49,26.92,1.49h.1c6.39.91,15.2,9.1,20.91,13.97l.2.17c.45.3.99.47,1.58.48.23,0,.44-.03.65-.08l.21-.06,8.66-2.4s.97-.31,1.85-.31h11.38c1.01,0,1.89.52,2.4,1.32.11.17.2.35.27.53l1.18,2.38c.07.12.14.25.19.39.13.33.21.69.21,1.07,0,1.34-.92,2.46-2.16,2.76h-.04s-9.15,1.49-9.15,1.49c-.78,0-1.42.64-1.42,1.42,0,.15.02.29.06.42.52.88,1.01,1.9,1.46,3.11.76,2.03,1.43,8.55,1.5,16.38h-25.52l-11.56,11.56c-1.9-.51-4.01-.02-5.49,1.47-2.22,2.22-2.22,5.82,0,8.04,2.22,2.22,5.82,2.22,8.04,0,1.49-1.49,1.98-3.59,1.47-5.49l9.9-9.9h23.11c-.26,9.3-1.43,19.33-4.24,25.57h-22.09l-1.57-5.75s-24.96,3.87-38.98,3.88h-.03c-5.98,0-13.9-.7-21.03-1.49l26.67-26.67c1.9.51,4.01.02,5.49-1.47,2.22-2.22,2.22-5.82,0-8.04-2.22-2.22-5.82-2.22-8.04,0-1.49,1.49-1.98,3.59-1.47,5.49l-29.83,29.83c-6.18-.79-10.61-1.47-10.61-1.47l-1.9,5.68h-21.8c-2.98-6.92-4.08-18.39-4.22-28.42h50.87s11.55-11.56,11.55-11.56c1.9.51,4,.01,5.49-1.47,2.22-2.22,2.22-5.82,0-8.04-2.22-2.22-5.82-2.22-8.04,0-1.49,1.49-1.98,3.59-1.47,5.49l-9.89,9.89h-48.49c.14-6.51.67-11.72,1.27-13.53.44-1.32.93-2.42,1.48-3.35Zm79.96,28.37c-1.11-1.11-1.11-2.91,0-4.02,1.11-1.11,2.91-1.11,4.02,0,1.11,1.11,1.11,2.91,0,4.02-1.11,1.11-2.91,1.11-4.02,0Zm-20.84-20.84c-1.11-1.11-1.11-2.91,0-4.02,1.11-1.11,2.91-1.11,4.02,0,1.11,1.11,1.11,2.91,0,4.02s-2.91,1.11-4.02,0Zm35.28,27.24c1.11,1.11,1.11,2.91,0,4.02-1.11,1.11-2.91,1.11-4.02,0-1.11-1.11-1.11-2.91,0-4.02,1.11-1.11,2.91-1.11,4.02,0Z" fill="#005e7d" stroke-width="0"/><path d="m133.82,128.87l-5.6-17.82-6.1,17.82h11.71Zm-34.66,21.65l20.42-52.49h18.14l20.26,52.49h-17.84l-3.59-10.78h-16.55l-3.88,10.78h-16.96ZM14.19,124.25c0,8.68,6.23,15.71,13.91,15.71s13.91-7.04,13.91-15.71-6.23-15.71-13.91-15.71-13.91,7.04-13.91,15.71Zm13.91-28.11c15.52,0,28.11,12.58,28.11,28.11s-12.58,28.11-28.11,28.11S0,139.77,0,124.25s12.58-28.11,28.11-28.11Zm58.1,22.42c6,2.1,12.53,5.77,12.16,16.3-.74,21.27-27.11,16.87-40.84,16.37l.46-13.04s11.66.42,16.04.58c2.26.08,7.41.21,7.53-3.2.12-3.54-6.84-4.94-9.41-5.79-5.25-1.66-13.62-5.65-13.24-16.64.67-19.09,26.1-15.68,38.79-15.25l-.44,12.68s-10.08-.33-13.67-.46c-1.7-.06-7.7-.19-7.79,2.62-.12,3.53,8.04,5,10.42,5.83Z" fill="#f17d00" stroke-width="0"/><path d="m324.11,137.98l-2.66,13.38h-14.86c-15.96,0-28.87-7.91-24.79-28.41,2.76-13.89,15.4-26.06,34.84-26.06h15.65l-2.65,13.34h-13.92c-9.59,0-15.53,6.16-16.87,12.87-1.88,9.46,3.28,14.88,11.85,14.88h13.42Zm-134.32-14.45l-10.1,27h-15.55l19.97-52.49h18.57l-.46,27.18,10.36-27.18h18.5l-.93,52.49h-15.91l.66-27.57-10.97,27.57h-14.84l.69-27Zm85.94,14.09l-2.57,12.91h-38.91l10.45-52.49h38.34l-2.6,13.05h-21.77l-1.18,5.91h20.33l-2.57,12.91h-20.33l-1.53,7.71h22.34Z" fill="#005e7d" stroke-width="0"/><path d="m14.52,173.09v-4.44c0-1.44-.64-2.36-2.24-2.36h-6.46c-1.6,0-2.24.92-2.24,2.36v4.44c0,1.44.64,2.35,2.24,2.35h6.46c1.6,0,2.24-.91,2.24-2.35Zm-3.39.29c0,.41-.16.62-.56.62h-3.04c-.41,0-.56-.21-.56-.62v-5.02c0-.41.16-.62.56-.62h3.04c.41,0,.56.21.56.62v5.02Z" fill="#f17d00" fill-rule="evenodd" stroke-width="0"/><path d="m23.45,168.32v-2.02h-2.86c-.99,0-1.42.33-1.48.99h-.04l-.14-.99h-3.25c.14.58.19,1.13.19,1.85v5.51c0,.74-.06,1.21-.19,1.79h3.78c-.14-.58-.19-1.05-.19-1.79v-4.91c0-.45.16-.62.6-.62h1.48c.82,0,1.48.06,2.1.19Z" fill="#f17d00" fill-rule="evenodd" stroke-width="0"/><path d="m35.94,166.3h-3.39l-.19.86h-.04c-.12-.49-.51-.86-.92-.86h-4.4c-1.32,0-2.2.7-2.2,2.36v4.42c0,1.62.78,2.37,2.2,2.37h4.2c.72,0,.88-.37,1.11-.93h.04v2.14c0,.53-.19.82-.76.82h-4.69c-.74,0-1.48-.08-1.95-.21l.23,1.65h8.31c1.6,0,2.24-1.13,2.24-2.35v-8.47c0-.74.06-1.21.19-1.79Zm-3.58,7.08c0,.45-.16.62-.6.62h-2.96c-.43,0-.6-.2-.6-.62v-5.02c0-.47.17-.62.6-.62h3.04c.37,0,.53.21.53.62v5.02Z" fill="#f17d00" fill-rule="evenodd" stroke-width="0"/><path d="m48.24,175.45c-.14-.56-.19-.97-.19-1.6v-5.18c0-1.44-.62-2.37-2.28-2.37h-8.12l-.21,1.56c.51-.12.86-.2,1.4-.2h5.35c.33,0,.47.16.47.39v.62c0,.33-.23.43-.47.43h-4.83c-1.63,0-2.26.86-2.26,2.96v.43c0,2.14.7,2.96,2.2,2.96h4.38c.78,0,1.05-.49,1.23-.95h.04l.16.95h3.13Zm-3.58-2.04c0,.45-.17.6-.56.6h-3.09c-.31,0-.51-.16-.51-.6v-2.24c0-.45.18-.62.56-.62h3.6v2.86Z" fill="#f17d00" fill-rule="evenodd" stroke-width="0"/><path d="m60.41,175.45c-.14-.58-.19-1.05-.19-1.79v-4.98c0-1.61-.78-2.37-2.2-2.37h-4.24c-.62,0-.9.29-1.07.93h-.04l-.08-.93h-3.39c.14.58.19,1.13.19,1.85v5.51c0,.74-.06,1.21-.19,1.79h3.78c-.14-.58-.19-1.05-.19-1.79v-5.29c0-.45.16-.62.6-.62h2.84c.43,0,.6.19.6.62v5.29c0,.74-.06,1.21-.19,1.79h3.78Z" fill="#f17d00" fill-rule="evenodd" stroke-width="0"/><path d="m65.16,165.4v-2.18h-3.39v2.18h3.39Zm.19,10.04c-.14-.58-.19-1.05-.19-1.79v-7.36h-3.58c.14.58.19,1.13.19,1.85v5.51c0,.74-.06,1.21-.19,1.79h3.78Z" fill="#f17d00" fill-rule="evenodd" stroke-width="0"/><path d="m77.49,173.85c-.49.16-1.3.23-1.99.23h-4.03l5.76-7.79h-10.24l-.19,1.6c.6-.2,1.34-.23,2.2-.23h3.19l-5.78,7.78h10.88l.19-1.6Z" fill="#f17d00" fill-rule="evenodd" stroke-width="0"/><path d="m89.69,175.45c-.14-.56-.19-.97-.19-1.6v-5.18c0-1.44-.62-2.37-2.28-2.37h-8.12l-.21,1.56c.51-.12.86-.2,1.4-.2h5.35c.33,0,.47.16.47.39v.62c0,.33-.23.43-.47.43h-4.83c-1.63,0-2.26.86-2.26,2.96v.43c0,2.14.7,2.96,2.2,2.96h4.38c.78,0,1.05-.49,1.23-.95h.04l.16.95h3.13Zm-3.58-2.04c0,.45-.18.6-.56.6h-3.09c-.31,0-.51-.16-.51-.6v-2.24c0-.45.17-.62.56-.62h3.6v2.86Z" fill="#f17d00" fill-rule="evenodd" stroke-width="0"/><path d="m100.46,173.89c-.27.06-.64.12-1.01.12h-4.65c-.41,0-.56-.21-.56-.62v-5.02c0-.41.16-.62.56-.62h4.65c.37,0,.74.06,1.01.12l-.27-1.56h-7.1c-1.6,0-2.24.92-2.24,2.36v4.44c0,1.44.64,2.35,2.24,2.35h7.1l.27-1.56Z" fill="#f17d00" fill-rule="evenodd" stroke-width="0"/><path d="m105.11,165.4v-2.18h-3.39v2.18h3.39Zm.19,10.04c-.14-.58-.19-1.05-.19-1.79v-7.36h-3.58c.14.58.19,1.13.19,1.85v5.51c0,.74-.06,1.21-.19,1.79h3.78Z" fill="#f17d00" fill-rule="evenodd" stroke-width="0"/><path d="m115.32,162.45h-2.98l-1.81,2.84h1.93l2.86-2.84Zm2.28,10.65v-4.44c0-1.44-.64-2.36-2.24-2.36h-6.46c-1.6,0-2.24.92-2.24,2.36v4.44c0,1.44.64,2.35,2.24,2.35h6.46c1.6,0,2.24-.91,2.24-2.35Zm-3.39.29c0,.41-.16.62-.56.62h-3.04c-.41,0-.56-.21-.56-.62v-5.02c0-.41.16-.62.56-.62h3.04c.41,0,.56.21.56.62v5.02Z" fill="#f17d00" fill-rule="evenodd" stroke-width="0"/><path d="m129.97,175.45c-.14-.58-.19-1.05-.19-1.79v-4.98c0-1.61-.78-2.37-2.2-2.37h-4.24c-.62,0-.89.29-1.07.93h-.04l-.08-.93h-3.39c.14.58.19,1.13.19,1.85v5.51c0,.74-.06,1.21-.19,1.79h3.78c-.14-.58-.19-1.05-.19-1.79v-5.29c0-.45.16-.62.6-.62h2.84c.43,0,.6.19.6.62v5.29c0,.74-.06,1.21-.19,1.79h3.78Z" fill="#f17d00" fill-rule="evenodd" stroke-width="0"/><path d="m145.74,173.48v-2.32c0-1.36-.92-1.98-2.26-1.98h-4.28c-.35,0-.56-.18-.56-.53v-.49c0-.29.21-.51.56-.51h4.71c.76,0,1.4.06,1.83.21l-.25-1.58h-8.15c-1.23,0-2,.74-2,2.36v1.3c0,1.58.7,2.41,2,2.41h4.36c.43,0,.74.21.74.56v.54c0,.39-.33.6-.68.6h-4.65c-.64,0-1.34-.06-1.73-.21l.25,1.58h7.86c1.38,0,2.26-.66,2.26-1.96Z" fill="#f17d00" fill-rule="evenodd" stroke-width="0"/><path d="m158.04,173.89c-.27.06-.64.12-1.01.12h-5.97c-.41,0-.56-.21-.56-.62v-1.67h7.55v-3.05c0-1.44-.64-2.36-2.24-2.36h-6.46c-1.6,0-2.24.92-2.24,2.36v4.44c0,1.44.64,2.35,2.24,2.35h8.43l.27-1.56Zm-3.39-3.62h-4.16v-1.91c0-.41.16-.62.56-.62h3.04c.41,0,.56.21.56.62v1.91Z" fill="#f17d00" fill-rule="evenodd" stroke-width="0"/><path d="m166.96,168.32v-2.02h-2.86c-.99,0-1.42.33-1.48.99h-.04l-.14-.99h-3.25c.14.58.19,1.13.19,1.85v5.51c0,.74-.06,1.21-.19,1.79h3.78c-.14-.58-.19-1.05-.19-1.79v-4.91c0-.45.16-.62.6-.62h1.48c.82,0,1.48.06,2.1.19Z" fill="#f17d00" fill-rule="evenodd" stroke-width="0"/><path d="m180.61,166.3h-2.08c.04.08.04.16.04.25,0,.29-.16.66-.33,1.03l-2.84,6.03-2.88-6.03c-.12-.25-.31-.72-.31-1.03,0-.1.02-.25.02-.25h-4.18c.25.16,1.03,1.66,1.23,2.06l3.41,7.08h3.39l3.74-7.86c.29-.6.49-.89.82-1.28Z" fill="#f17d00" fill-rule="evenodd" stroke-width="0"/><path d="m185.25,165.4v-2.18h-3.39v2.18h3.39Zm.19,10.04c-.14-.58-.19-1.05-.19-1.79v-7.36h-3.58c.14.58.19,1.13.19,1.85v5.51c0,.74-.06,1.21-.19,1.79h3.78Z" fill="#f17d00" fill-rule="evenodd" stroke-width="0"/><path d="m196.41,173.89c-.27.06-.64.12-1.01.12h-4.65c-.41,0-.56-.21-.56-.62v-5.02c0-.41.16-.62.56-.62h4.65c.37,0,.74.06,1.01.12l-.27-1.56h-7.1c-1.6,0-2.24.92-2.24,2.36v4.44c0,1.44.64,2.35,2.24,2.35h7.1l.27-1.56Z" fill="#f17d00" fill-rule="evenodd" stroke-width="0"/><path d="m201.06,165.4v-2.18h-3.39v2.18h3.39Zm.2,10.04c-.14-.58-.2-1.05-.2-1.79v-7.36h-3.58c.14.58.19,1.13.19,1.85v5.51c0,.74-.06,1.21-.19,1.79h3.78Z" fill="#f17d00" fill-rule="evenodd" stroke-width="0"/><path d="m213.55,173.09v-4.44c0-1.44-.64-2.36-2.24-2.36h-6.46c-1.6,0-2.24.92-2.24,2.36v4.44c0,1.44.64,2.35,2.24,2.35h6.46c1.6,0,2.24-.91,2.24-2.35Zm-3.39.29c0,.41-.16.62-.56.62h-3.04c-.41,0-.56-.21-.56-.62v-5.02c0-.41.16-.62.56-.62h3.04c.41,0,.56.21.56.62v5.02Z" fill="#f17d00" fill-rule="evenodd" stroke-width="0"/><path d="m230.24,175.45c-.14-.56-.19-.97-.19-1.6v-5.18c0-1.44-.62-2.37-2.28-2.37h-8.12l-.21,1.56c.51-.12.86-.2,1.4-.2h5.35c.33,0,.47.16.47.39v.62c0,.33-.23.43-.47.43h-4.83c-1.63,0-2.26.86-2.26,2.96v.43c0,2.14.7,2.96,2.2,2.96h4.38c.78,0,1.05-.49,1.23-.95h.04l.16.95h3.13Zm-3.58-2.04c0,.45-.17.6-.56.6h-3.09c-.31,0-.51-.16-.51-.6v-2.24c0-.45.18-.62.56-.62h3.6v2.86Z" fill="#f17d00" fill-rule="evenodd" stroke-width="0"/><path d="m242.41,175.45c-.14-.58-.19-1.13-.19-1.85v-7.3h-3.58c.14.58.19,1.05.19,1.79v5.29c0,.45-.16.62-.6.62h-2.84c-.43,0-.6-.2-.6-.62v-7.08h-3.58c.14.58.19,1.05.19,1.79v4.98c0,1.62.78,2.37,2.2,2.37h4.24c.62,0,.9-.29,1.07-.93h.04l.08.93h3.39Z" fill="#f17d00" fill-rule="evenodd" stroke-width="0"/><path d="m252.55,173.79c-.37.14-1.05.21-1.65.21h-1.71c-.54,0-.76-.27-.76-.82v-5.53h3.29v-1.36h-3.29v-2.32l-3.39.45v1.87h-1.77v1.36h1.77v5.24c0,1.46.64,2.55,2.24,2.55h4.96l.31-1.65Z" fill="#f17d00" fill-rule="evenodd" stroke-width="0"/><path d="m264.55,173.09v-4.44c0-1.44-.64-2.36-2.24-2.36h-6.46c-1.6,0-2.24.92-2.24,2.36v4.44c0,1.44.64,2.35,2.24,2.35h6.46c1.6,0,2.24-.91,2.24-2.35Zm-3.39.29c0,.41-.16.62-.56.62h-3.04c-.41,0-.56-.21-.56-.62v-5.02c0-.41.16-.62.56-.62h3.04c.41,0,.56.21.56.62v5.02Z" fill="#f17d00" fill-rule="evenodd" stroke-width="0"/><path d="m283.77,175.45c-.14-.58-.19-1.05-.19-1.79v-4.98c0-1.61-.78-2.37-2.2-2.37h-4.03c-.58,0-.78.35-1.03.88-.18-.58-.37-.88-1.28-.88h-4.75c-.62,0-.89.29-1.07.93h-.04l-.08-.93h-3.39c.14.58.19,1.13.19,1.85v5.51c0,.74-.06,1.21-.19,1.79h3.78c-.14-.58-.19-1.05-.19-1.79v-5.29c0-.45.16-.62.6-.62h2.55c.43,0,.6.19.6.62v5.29c0,.74-.06,1.21-.19,1.79h3.78c-.14-.58-.19-1.05-.19-1.79v-5.29c0-.45.16-.62.6-.62h2.55c.43,0,.6.19.6.62v5.29c0,.74-.06,1.21-.19,1.79h3.78Z" fill="#f17d00" fill-rule="evenodd" stroke-width="0"/><path d="m295.87,173.09v-4.44c0-1.44-.64-2.36-2.24-2.36h-6.46c-1.6,0-2.24.92-2.24,2.36v4.44c0,1.44.64,2.35,2.24,2.35h6.46c1.6,0,2.24-.91,2.24-2.35Zm-3.38.29c0,.41-.16.62-.57.62h-3.04c-.41,0-.56-.21-.56-.62v-5.02c0-.41.16-.62.56-.62h3.04c.41,0,.57.21.57.62v5.02Z" fill="#f17d00" fill-rule="evenodd" stroke-width="0"/><path d="m306.2,173.79c-.37.14-1.05.21-1.65.21h-1.71c-.54,0-.76-.27-.76-.82v-5.53h3.29v-1.36h-3.29v-2.32l-3.39.45v1.87h-1.77v1.36h1.77v5.24c0,1.46.64,2.55,2.24,2.55h4.96l.31-1.65Z" fill="#f17d00" fill-rule="evenodd" stroke-width="0"/><path d="m318.2,173.09v-4.44c0-1.44-.64-2.36-2.24-2.36h-6.46c-1.6,0-2.24.92-2.24,2.36v4.44c0,1.44.64,2.35,2.24,2.35h6.46c1.6,0,2.24-.91,2.24-2.35Zm-3.39.29c0,.41-.16.62-.56.62h-3.04c-.41,0-.56-.21-.56-.62v-5.02c0-.41.16-.62.56-.62h3.04c.41,0,.56.21.56.62v5.02Z" fill="#f17d00" fill-rule="evenodd" stroke-width="0"/><path d="m327.13,168.32v-2.02h-2.86c-.99,0-1.42.33-1.48.99h-.04l-.14-.99h-3.25c.14.58.2,1.13.2,1.85v5.51c0,.74-.06,1.21-.2,1.79h3.78c-.14-.58-.2-1.05-.2-1.79v-4.91c0-.45.16-.62.6-.62h1.48c.82,0,1.48.06,2.1.19Z" fill="#f17d00" fill-rule="evenodd" stroke-width="0"/></g></svg>